<svg xmlns="http://www.w3.org/2000/svg" viewBox="0 0 800 800" role="img" aria-labelledby="title desc">
  <title id="title">tmrw hero visual</title>
  <desc id="desc">Abstract gradient grid representing orchestrated AI agents.</desc>
  <defs>
    <radialGradient id="bg" cx="50%" cy="50%" r="70%">
      <stop offset="0%" stop-color="#4AB2F7" stop-opacity="0.45" />
      <stop offset="60%" stop-color="#1A2A3C" stop-opacity="0.6" />
      <stop offset="100%" stop-color="#0E0E0E" stop-opacity="0.95" />
    </radialGradient>
    <linearGradient id="line" x1="0%" y1="0%" x2="100%" y2="100%">
      <stop offset="0%" stop-color="#4AB2F7" stop-opacity="0.9" />
      <stop offset="100%" stop-color="#EBA94A" stop-opacity="0.8" />
    </linearGradient>
  </defs>
  <rect width="800" height="800" fill="url(#bg)" rx="48" />
  <g stroke="url(#line)" stroke-width="1.5" opacity="0.5">
    <path d="M120 160h560M120 280h560M120 400h560M120 520h560M120 640h560" />
    <path d="M200 120v560M320 120v560M440 120v560M560 120v560M680 120v560" />
  </g>
  <circle cx="400" cy="400" r="160" fill="#0E0E0E" opacity="0.65" />
  <circle cx="400" cy="400" r="100" fill="none" stroke="url(#line)" stroke-width="6" opacity="0.9" />
  <circle cx="280" cy="320" r="26" fill="#4AB2F7" opacity="0.85" />
  <circle cx="520" cy="300" r="26" fill="#EBA94A" opacity="0.85" />
  <circle cx="320" cy="520" r="20" fill="#EBA94A" opacity="0.85" />
  <circle cx="520" cy="520" r="24" fill="#4AB2F7" opacity="0.85" />
  <path d="M280 320 L400 400 L520 300" fill="none" stroke="#4AB2F7" stroke-width="4" stroke-linecap="round" opacity="0.8" />
  <path d="M320 520 L400 400 L520 520" fill="none" stroke="#EBA94A" stroke-width="4" stroke-linecap="round" opacity="0.8" />
</svg>
